<svg xmlns="http://www.w3.org/2000/svg" width="120" height="120" viewBox="0 0 120 120" fill="none">
  <rect width="120" height="120" fill="#2A3A2E"/>
  <circle cx="20" cy="18" r="28" fill="#3D5A3A"/>
  <circle cx="95" cy="30" r="34" fill="#4A6B42"/>
  <circle cx="55" cy="70" r="40" fill="#355238"/>
  <circle cx="15" cy="95" r="30" fill="#2F4632"/>
  <circle cx="100" cy="100" r="26" fill="#4E6F45"/>
  <path d="M0 78C22 70 40 86 58 80C76 74 92 62 120 68V120H0V78Z" fill="#5C4A38"/>
  <path d="M0 92C28 86 44 98 68 94C90 90 104 82 120 88V120H0V92Z" fill="#6B5742"/>
  <path d="M8 40C18 48 28 42 40 55C52 68 48 78 62 88" stroke="#7A8A6A" stroke-width="2" opacity="0.45"/>
  <path d="M70 20C78 34 88 30 98 48" stroke="#8A9A7A" stroke-width="2" opacity="0.35"/>
  <rect x="0" y="0" width="120" height="120" fill="url(#satShade)"/>
  <defs>
    <linearGradient id="satShade" x1="0" y1="0" x2="120" y2="120">
      <stop stop-color="#ffffff" stop-opacity="0.08"/>
      <stop offset="1" stop-color="#000000" stop-opacity="0.25"/>
    </linearGradient>
  </defs>
</svg>
